<svg width="15" height="8" viewBox="0 0 15 8" fill="none" xmlns="http://www.w3.org/2000/svg">
<path d="M15 1.17C15.0005 1.3194 14.9676 1.46701 14.9035 1.60199C14.8395 1.73697 14.7461 1.85589 14.63 1.95L8.63003 6.78C8.4511 6.92709 8.22666 7.00749 7.99503 7.00749C7.76341 7.00749 7.53896 6.92709 7.36003 6.78L1.36003 1.78C1.15581 1.61026 1.02739 1.36635 1.00301 1.10193C0.978631 0.837501 1.06029 0.57422 1.23003 0.370003C1.39977 0.165787 1.64368 0.0373626 1.90811 0.0129828C2.17253 -0.0113969 2.43581 0.0702648 2.64003 0.240003L8.00003 4.71L13.36 0.390004C13.5068 0.267721 13.6856 0.190043 13.8751 0.166164C14.0647 0.142284 14.2571 0.173202 14.4296 0.255257C14.6021 0.337313 14.7475 0.467073 14.8486 0.629183C14.9497 0.791294 15.0023 0.97897 15 1.17Z" fill="black" fill-opacity="0.5"/>
</svg>
